<?xml version="1.0" encoding="UTF-8" standalone="no"?>
<!-- Created with Inkscape (http://www.inkscape.org/) -->

<svg
   xmlns:dc="http://purl.org/dc/elements/1.1/"
   xmlns:cc="http://creativecommons.org/ns#"
   xmlns:rdf="http://www.w3.org/1999/02/22-rdf-syntax-ns#"
   xmlns:svg="http://www.w3.org/2000/svg"
   xmlns="http://www.w3.org/2000/svg"
   xmlns:sodipodi="http://sodipodi.sourceforge.net/DTD/sodipodi-0.dtd"
   xmlns:inkscape="http://www.inkscape.org/namespaces/inkscape"
   width="128"
   height="40"
   id="svg2"
   version="1.1"
   inkscape:version="0.48.5 r10040"
   inkscape:export-filename="/home/bp/Pictures/bitcoin_donate_logo.png"
   inkscape:export-xdpi="25.309999"
   inkscape:export-ydpi="25.309999"
   sodipodi:docname="bitcoin_donate_logo.svg">
  <defs
     id="defs4" />
  <sodipodi:namedview
     id="base"
     pagecolor="#ffffff"
     bordercolor="#666666"
     borderopacity="1.0"
     inkscape:pageopacity="0.0"
     inkscape:pageshadow="2"
     inkscape:zoom="1"
     inkscape:cx="37.479208"
     inkscape:cy="-17.955151"
     inkscape:document-units="px"
     inkscape:current-layer="layer1"
     showgrid="false"
     width="800px"
     inkscape:showpageshadow="false"
     showborder="true"
     inkscape:window-width="1916"
     inkscape:window-height="1028"
     inkscape:window-x="0"
     inkscape:window-y="24"
     inkscape:window-maximized="0"
     units="px"
     fit-margin-top="0"
     fit-margin-left="0"
     fit-margin-right="0"
     fit-margin-bottom="0" />
  <metadata
     id="metadata7">
    <rdf:RDF>
      <cc:Work
         rdf:about="">
        <dc:format>image/svg+xml</dc:format>
        <dc:type
           rdf:resource="http://purl.org/dc/dcmitype/StillImage" />
        <dc:title></dc:title>
      </cc:Work>
    </rdf:RDF>
  </metadata>
  <g
     inkscape:label="Layer 1"
     inkscape:groupmode="layer"
     id="layer1"
     transform="translate(0,-1012.3622)">
    <rect
       style="fill:#3d3127;fill-opacity:1;stroke:none"
       id="rect5537"
       width="128"
       height="40"
       x="0"
       y="1012.3622"
       ry="20" />
    <g
       id="g5529"
       transform="matrix(0.49999493,0,0,0.49999493,58.477773,917.61083)">
      <path
         id="path5484"
         d="m -44.50346,237.24631 c -4.274,17.143 -21.637,27.576 -38.782,23.301 -17.138,-4.274 -27.571,-21.638 -23.295,-38.78 4.272,-17.145 21.635,-27.579 38.775,-23.305 17.144,4.274 27.576,21.64 23.302,38.784 z"
         inkscape:connector-curvature="0"
         style="fill:#f7931a" />
      <path
         id="path5486"
         d="m -61.43346,224.94631 c 0.637,-4.258 -2.605,-6.547 -7.038,-8.074 l 1.438,-5.768 -3.511,-0.875 -1.4,5.616 c -0.923,-0.23 -1.871,-0.447 -2.813,-0.662 l 1.41,-5.653 -3.509,-0.875 -1.439,5.766 c -0.764,-0.174 -1.514,-0.346 -2.242,-0.527 l 0.004,-0.018 -4.842,-1.209 -0.934,3.75 c 0,0 2.605,0.597 2.55,0.634 1.422,0.355 1.679,1.296 1.636,2.042 l -1.638,6.571 c 0.098,0.025 0.225,0.061 0.365,0.117 -0.117,-0.029 -0.242,-0.061 -0.371,-0.092 l -2.296,9.205 c -0.174,0.432 -0.615,1.08 -1.609,0.834 0.035,0.051 -2.552,-0.637 -2.552,-0.637 l -1.743,4.019 4.569,1.139 c 0.85,0.213 1.683,0.436 2.503,0.646 l -1.453,5.834 3.507,0.875 1.439,-5.772 c 0.958,0.26 1.888,0.5 2.798,0.726 l -1.434,5.745 3.511,0.875 1.453,-5.823 c 5.987,1.133 10.489,0.676 12.384,-4.739 1.527,-4.36 -0.076,-6.875 -3.226,-8.515 2.294,-0.529 4.022,-2.038 4.483,-5.155 z m -8.022,11.249 c -1.085,4.36 -8.426,2.003 -10.806,1.412 l 1.928,-7.729 c 2.38,0.594 10.012,1.77 8.878,6.317 z m 1.086,-11.312 c -0.99,3.966 -7.1,1.951 -9.082,1.457 l 1.748,-7.01 c 1.982,0.494 8.365,1.416 7.334,5.553 z"
         inkscape:connector-curvature="0"
         style="fill:#ffffff" />
    </g>
    <g
       style="font-size:22.39999962px;font-style:normal;font-variant:normal;font-weight:bold;font-stretch:normal;line-height:125%;letter-spacing:0px;word-spacing:0px;fill:#e7cda9;fill-opacity:0.90733595;stroke:none;font-family:DejaVu Sans;-inkscape-font-specification:DejaVu Sans Bold"
       id="text5533"
       transform="matrix(0.8,0,0,0.8,0,210.47244)">
      <path
         d="m 60.016932,1022.2215 0,9.9641 1.509375,0 c 1.720824,0 3.033322,-0.4266 3.9375,-1.2797 0.911445,-0.8531 1.367174,-2.0927 1.367187,-3.7187 -1.3e-5,-1.6188 -0.452096,-2.8511 -1.35625,-3.6969 -0.904177,-0.8458 -2.220322,-1.2688 -3.948437,-1.2688 l -1.509375,0 m -4.210938,-3.1828 4.440625,0 c 2.479158,0 4.323948,0.1787 5.534375,0.536 1.217695,0.35 2.260403,0.9479 3.128125,1.7937 0.765609,0.7365 1.334359,1.586 1.70625,2.5484 0.371858,0.9626 0.557795,2.0527 0.557813,3.2704 -1.8e-5,1.2323 -0.185955,2.3333 -0.557813,3.3031 -0.371891,0.9625 -0.940641,1.812 -1.70625,2.5484 -0.875014,0.8459 -1.925013,1.4474 -3.15,1.8047 -1.225011,0.35 -3.062509,0.525 -5.5125,0.525 l -4.440625,0 0,-16.3297"
         id="path6438"
         inkscape:connector-curvature="0" />
      <path
         d="m 80.054432,1025.6231 c -0.867715,0 -1.531256,0.3135 -1.990625,0.9406 -0.452089,0.6198 -0.67813,1.5167 -0.678125,2.6906 -5e-6,1.174 0.226036,2.0745 0.678125,2.7016 0.459369,0.6198 1.12291,0.9297 1.990625,0.9297 0.853116,0 1.50572,-0.3099 1.957812,-0.9297 0.452073,-0.6271 0.678115,-1.5276 0.678125,-2.7016 -1e-5,-1.1739 -0.226052,-2.0708 -0.678125,-2.6906 -0.452092,-0.6271 -1.104696,-0.9406 -1.957812,-0.9406 m 0,-2.8 c 2.107282,0 3.751551,0.5688 4.932812,1.7062 1.188528,1.1376 1.782798,2.7126 1.782813,4.725 -1.5e-5,2.0125 -0.594285,3.5875 -1.782813,4.725 -1.181261,1.1375 -2.82553,1.7063 -4.932812,1.7063 -2.114589,0 -3.769796,-0.5688 -4.965625,-1.7063 -1.188543,-1.1375 -1.782814,-2.7125 -1.782813,-4.725 -10e-7,-2.0124 0.59427,-3.5874 1.782813,-4.725 1.195829,-1.1374 2.851036,-1.7062 4.965625,-1.7062"
         id="path6440"
         inkscape:connector-curvature="0" />
      <path
         d="m 101.94037,1027.909 0,7.4594 -3.937499,0 0,-1.2141 0,-4.4953 c -1e-5,-1.0573 -0.02553,-1.7864 -0.07656,-2.1875 -0.04376,-0.401 -0.123968,-0.6963 -0.240625,-0.8859 -0.153135,-0.2552 -0.360947,-0.4521 -0.623437,-0.5906 -0.262509,-0.1459 -0.561467,-0.2188 -0.896875,-0.2188 -0.816674,0 -1.45834,0.3172 -1.925,0.9516 -0.466673,0.6271 -0.700006,1.4984 -0.7,2.614 l 0,6.0266 -3.915625,0 0,-12.25 3.915625,0 0,1.7938 c 0.590618,-0.7146 1.217701,-1.2396 1.88125,-1.575 0.663533,-0.3427 1.396345,-0.5141 2.198437,-0.5141 1.414572,0 2.486439,0.4339 3.215619,1.3016 0.73645,0.8677 1.10468,2.1291 1.10469,3.7843"
         id="path6442"
         inkscape:connector-curvature="0" />
      <path
         d="m 111.08412,1029.8559 c -0.81667,0 -1.43282,0.1386 -1.84844,0.4156 -0.40834,0.2771 -0.6125,0.6855 -0.6125,1.225 0,0.4959 0.16406,0.886 0.49219,1.1703 0.33541,0.2771 0.79843,0.4157 1.38906,0.4157 0.73645,0 1.35625,-0.2625 1.85938,-0.7875 0.50311,-0.5323 0.75468,-1.1959 0.75469,-1.9907 l 0,-0.4484 -2.03438,0 m 5.98281,-1.4766 0,6.9891 -3.94843,0 0,-1.8156 c -0.52501,0.7437 -1.11564,1.287 -1.77188,1.6297 -0.65626,0.3354 -1.45469,0.5031 -2.39531,0.5031 -1.26876,0 -2.30053,-0.3682 -3.09531,-1.1047 -0.78751,-0.7437 -1.18126,-1.7062 -1.18125,-2.8875 -1e-5,-1.4364 0.49218,-2.4901 1.47656,-3.1609 0.99166,-0.6709 2.54479,-1.0063 4.65937,-1.0063 l 2.30782,0 0,-0.3062 c -1e-5,-0.6198 -0.24428,-1.0719 -0.73282,-1.3563 -0.48855,-0.2916 -1.25052,-0.4375 -2.28593,-0.4375 -0.83855,0 -1.61876,0.084 -2.34063,0.2516 -0.72188,0.1677 -1.39271,0.4193 -2.0125,0.7547 l 0,-2.986 c 0.83854,-0.2041 1.68073,-0.3572 2.52656,-0.4593 0.84583,-0.1094 1.69166,-0.1641 2.5375,-0.1641 2.20937,0 3.8026,0.4375 4.77969,1.3125 0.98436,0.8677 1.47655,2.2823 1.47656,4.2437"
         id="path6444"
         inkscape:connector-curvature="0" />
      <path
         d="m 125.00756,1019.6403 0,3.4781 4.03593,0 0,2.8 -4.03593,0 0,5.1953 c -1e-5,0.5688 0.11301,0.9552 0.33906,1.1594 0.22603,0.1969 0.67447,0.2953 1.34531,0.2953 l 2.0125,0 0,2.8 -3.35781,0 c -1.54584,0 -2.64324,-0.3208 -3.29219,-0.9625 -0.64167,-0.6489 -0.9625,-1.7463 -0.9625,-3.2922 l 0,-5.1953 -1.94687,0 0,-2.8 1.94687,0 0,-3.4781 3.91563,0"
         id="path6446"
         inkscape:connector-curvature="0" />
      <path
         d="m 143.67787,1029.2106 0,1.1156 -9.15469,0 c 0.0948,0.9188 0.42656,1.6078 0.99531,2.0672 0.56875,0.4594 1.36354,0.6891 2.38438,0.6891 0.82395,0 1.66613,-0.1203 2.52656,-0.361 0.8677,-0.2479 1.75728,-0.6198 2.66875,-1.1156 l 0,3.0188 c -0.92605,0.35 -1.85209,0.6125 -2.77812,0.7875 -0.92606,0.1822 -1.8521,0.2734 -2.77813,0.2734 -2.21667,0 -3.94115,-0.5615 -5.17344,-1.6844 -1.225,-1.1302 -1.8375,-2.7125 -1.8375,-4.7469 0,-1.9979 0.60156,-3.5692 1.80469,-4.714 1.21041,-1.1448 2.87291,-1.7172 4.9875,-1.7172 1.92499,0 3.46353,0.5797 4.61563,1.7391 1.15936,1.1593 1.73904,2.7088 1.73906,4.6484 m -4.025,-1.3016 c -1e-5,-0.7437 -0.21876,-1.3416 -0.65625,-1.7937 -0.43022,-0.4594 -0.99532,-0.6891 -1.69531,-0.6891 -0.75835,0 -1.37449,0.2151 -1.84844,0.6453 -0.47397,0.423 -0.76928,1.0355 -0.88594,1.8375 l 5.08594,0"
         id="path6448"
         inkscape:connector-curvature="0" />
    </g>
  </g>
</svg>
