<?xml version="1.0" encoding="UTF-8" standalone="no"?>
<!-- Created with Inkscape (http://www.inkscape.org/) -->

<svg
   xmlns:dc="http://purl.org/dc/elements/1.1/"
   xmlns:cc="http://creativecommons.org/ns#"
   xmlns:rdf="http://www.w3.org/1999/02/22-rdf-syntax-ns#"
   xmlns:svg="http://www.w3.org/2000/svg"
   xmlns="http://www.w3.org/2000/svg"
   xmlns:sodipodi="http://sodipodi.sourceforge.net/DTD/sodipodi-0.dtd"
   xmlns:inkscape="http://www.inkscape.org/namespaces/inkscape"
   width="300"
   height="300"
   id="svg2"
   version="1.1"
   inkscape:version="0.48.4 r9939"
   sodipodi:docname="gnome.svg"
   inkscape:export-filename="/home/bp/Documents/projects/twobp/www/content/favicon.png"
   inkscape:export-xdpi="372.28"
   inkscape:export-ydpi="372.28">
  <defs
     id="defs4" />
  <sodipodi:namedview
     id="base"
     pagecolor="#ffffff"
     bordercolor="#666666"
     borderopacity="1.0"
     inkscape:pageopacity="0.0"
     inkscape:pageshadow="2"
     inkscape:zoom="2"
     inkscape:cx="299.53244"
     inkscape:cy="116.79898"
     inkscape:document-units="px"
     inkscape:current-layer="layer1"
     showgrid="false"
     inkscape:window-width="1916"
     inkscape:window-height="1037"
     inkscape:window-x="0"
     inkscape:window-y="20"
     inkscape:window-maximized="0"
     showguides="true" />
  <metadata
     id="metadata7">
    <rdf:RDF>
      <cc:Work
         rdf:about="">
        <dc:format>image/svg+xml</dc:format>
        <dc:type
           rdf:resource="http://purl.org/dc/dcmitype/StillImage" />
        <dc:title></dc:title>
      </cc:Work>
    </rdf:RDF>
  </metadata>
  <g
     inkscape:label="Calque 1"
     inkscape:groupmode="layer"
     id="layer1"
     transform="translate(0,-752.36218)">
    <text
       xml:space="preserve"
       style="font-size:16px;font-style:normal;font-variant:normal;font-weight:normal;font-stretch:normal;line-height:125%;letter-spacing:0px;word-spacing:0px;fill:#000000;fill-opacity:1;stroke:none;font-family:Open Sans;-inkscape-font-specification:Open Sans"
       x="294.86353"
       y="513.72357"
       id="text3784"
       sodipodi:linespacing="125%"><tspan
         sodipodi:role="line"
         id="tspan3786"
         x="294.86353"
         y="513.72357" /></text>
    <g
       id="g3923"
       transform="matrix(18.077831,0,0,18.077831,-5312.1172,-8620.9314)"
       inkscape:export-filename="/home/bp/Documents/projects/twobp/www/content/favicon.png"
       inkscape:export-xdpi="21.6"
       inkscape:export-ydpi="21.6"
       style="stroke:none">
      <rect
         y="518.49658"
         x="293.84705"
         height="16.594912"
         width="16.594912"
         id="rect3852"
         style="fill:#ffffff;fill-opacity:1;stroke:none" />
      <path
         inkscape:connector-curvature="0"
         id="text3788"
         d="m 299.61325,520.96591 c -1.1927,10e-6 -2.13541,0.26564 -2.78125,0.78125 -0.64583,0.51564 -0.96874,1.2448 -0.96875,2.1875 1e-5,0.71355 0.18751,1.27605 0.53125,1.6875 0.33855,0.41146 0.84897,0.64584 1.53125,0.75 -0.76562,0.11459 -1.3802,0.45834 -1.8125,1 -0.43749,0.53646 -0.65624,1.22917 -0.65625,2.0625 1e-5,1.05729 0.3698,1.83333 1.0625,2.375 0.69272,0.53646 1.72396,0.8125 3.09375,0.8125 l 1.84375,0 1.59375,0 0,-4.6875 1.8125,0 c 1.30729,0 2.30208,-0.28645 2.96875,-0.875 0.67187,-0.58854 0.99999,-1.47395 1,-2.625 -10e-6,-1.14062 -0.32813,-2.0052 -1,-2.59375 -0.67188,-0.59374 -1.66667,-0.87499 -2.96875,-0.875 l -1.8125,0 -1.59375,0 -1.84375,0 z m 0.0312,1.28125 1.8125,0 0,3.53125 -1.8125,0 c -0.76041,10e-6 -1.3177,-0.14583 -1.65625,-0.4375 -0.34374,-0.29166 -0.53124,-0.7552 -0.53125,-1.40625 10e-6,-0.58853 0.19272,-1.02082 0.53125,-1.28125 0.33334,-0.26041 0.88542,-0.40624 1.65625,-0.40625 z m 3.40625,0 1.8125,0 c 0.73437,10e-6 1.31249,0.20834 1.71875,0.59375 0.40624,0.38022 0.62499,0.90105 0.625,1.59375 -1e-5,0.69272 -0.21355,1.23959 -0.625,1.625 -0.40626,0.38542 -0.98959,0.59376 -1.71875,0.59375 l -1.8125,0 0,-4.40625 z m -3.4375,4.8125 1.84375,0 0,4.28125 -1.84375,0 c -0.91666,0 -1.57812,-0.18229 -1.96875,-0.5 -0.39062,-0.32291 -0.59374,-0.82812 -0.59375,-1.5625 10e-6,-0.76041 0.21355,-1.33333 0.625,-1.6875 0.41146,-0.35937 1.06251,-0.53124 1.9375,-0.53125 z"
         style="font-size:16px;font-style:normal;font-variant:normal;font-weight:normal;font-stretch:normal;text-align:start;line-height:125%;letter-spacing:0px;word-spacing:0px;writing-mode:lr-tb;text-anchor:start;fill:#000000;fill-opacity:1;stroke:none;font-family:Sans;-inkscape-font-specification:Sans" />
    </g>
  </g>
</svg>
